<svg width="19" height="19" viewBox="0 0 19 19" fill="none" xmlns="http://www.w3.org/2000/svg">
<g clip-path="url(#clip0_553_86)">
<path d="M6.3335 8.7085C5.01933 8.7085 3.96641 7.64766 3.96641 6.3335C3.96641 5.01933 5.01933 3.9585 6.3335 3.9585C7.64766 3.9585 8.7085 5.01933 8.7085 6.3335C8.7085 7.64766 7.64766 8.7085 6.3335 8.7085ZM12.6668 8.7085C11.3527 8.7085 10.2997 7.64766 10.2997 6.3335C10.2997 5.01933 11.3527 3.9585 12.6668 3.9585C13.981 3.9585 15.0418 5.01933 15.0418 6.3335C15.0418 7.64766 13.981 8.7085 12.6668 8.7085ZM12.6668 10.2918C14.5114 10.2918 18.2085 11.2181 18.2085 13.0627V15.0418H7.12516V13.0627C7.12516 11.2181 10.8222 10.2918 12.6668 10.2918ZM6.3335 10.2918C6.56308 10.2918 6.82433 10.3077 7.10141 10.3314C6.18308 10.9964 5.54183 11.891 5.54183 13.0627V15.0418H0.79183V13.0627C0.79183 11.2181 4.48891 10.2918 6.3335 10.2918Z" fill="white"/>
</g>
<defs>
<clipPath id="clip0_553_86">
<rect width="19" height="19" fill="white" transform="matrix(-1 0 0 1 19 0)"/>
</clipPath>
</defs>
</svg>
