<svg width="12" height="13" viewBox="0 0 12 13" fill="none" xmlns="http://www.w3.org/2000/svg">
<g clip-path="url(#clip0_628_203)">
<path d="M7.5 1H4.5V2H7.5V1ZM5.5 7.5H6.5V4.5H5.5V7.5ZM9.515 4.195L10.225 3.485C10.01 3.23 9.775 2.99 9.52 2.78L8.81 3.49C8.035 2.87 7.06 2.5 6 2.5C3.515 2.5 1.5 4.515 1.5 7C1.5 9.485 3.51 11.5 6 11.5C8.49 11.5 10.5 9.485 10.5 7C10.5 5.94 10.13 4.965 9.515 4.195ZM6 10.5C4.065 10.5 2.5 8.935 2.5 7C2.5 5.065 4.065 3.5 6 3.5C7.935 3.5 9.5 5.065 9.5 7C9.5 8.935 7.935 10.5 6 10.5Z" fill="black"/>
</g>
<defs>
<clipPath id="clip0_628_203">
<rect width="12" height="12" fill="white" transform="translate(0 0.5)"/>
</clipPath>
</defs>
</svg>
