<svg width="49" height="63" viewBox="0 0 49 63" fill="none" xmlns="http://www.w3.org/2000/svg">
<rect x="2" y="10.0425" width="44.2568" height="50.5761" rx="8" stroke="#141349" stroke-width="4"/>
<path d="M8.96826 12.2876L8.96826 4.99994C8.96826 3.06695 10.5353 1.49994 12.4683 1.49994L36.3629 1.49994C38.2959 1.49994 39.8629 3.06695 39.8629 4.99994V12.2876L8.96826 12.2876Z" fill="white" stroke="#141349" stroke-width="3"/>
<circle cx="24.4154" cy="38.7777" r="16.0218" stroke="#141349" stroke-width="3"/>
<line x1="7.3042" y1="15.9175" x2="40.6244" y2="15.9175" stroke="#141349" stroke-width="3"/>
<path d="M21.168 3.79C21.168 3.73 21.198 3.7 21.258 3.7H21.708C21.768 3.7 21.798 3.73 21.798 3.79V9.91C21.798 9.97 21.768 10 21.708 10H21.177C21.129 10 21.096 9.976 21.078 9.928L19.323 5.275C19.317 5.257 19.308 5.251 19.296 5.257C19.284 5.257 19.278 5.266 19.278 5.284L19.287 9.91C19.287 9.97 19.257 10 19.197 10H18.738C18.678 10 18.648 9.97 18.648 9.91V3.79C18.648 3.73 18.678 3.7 18.738 3.7H19.26C19.308 3.7 19.341 3.724 19.359 3.772L21.123 8.434C21.129 8.452 21.138 8.461 21.15 8.461C21.162 8.455 21.168 8.443 21.168 8.425V3.79ZM23.1765 10C23.1165 10 23.0865 9.97 23.0865 9.91V3.79C23.0865 3.73 23.1165 3.7 23.1765 3.7H24.5625C25.0245 3.7 25.3935 3.853 25.6695 4.159C25.9455 4.459 26.0835 4.864 26.0835 5.374V8.326C26.0835 8.836 25.9455 9.244 25.6695 9.55C25.3935 9.85 25.0245 10 24.5625 10H23.1765ZM23.7255 9.406C23.7255 9.43 23.7375 9.442 23.7615 9.442L24.5535 9.433C24.8175 9.433 25.0275 9.331 25.1835 9.127C25.3455 8.923 25.4295 8.647 25.4355 8.299V5.401C25.4355 5.047 25.3575 4.768 25.2015 4.564C25.0455 4.36 24.8295 4.258 24.5535 4.258H23.7615C23.7375 4.258 23.7255 4.27 23.7255 4.294V9.406ZM29.4527 10C29.3987 10 29.3657 9.973 29.3537 9.919L29.1287 8.803C29.1287 8.791 29.1227 8.782 29.1107 8.776C29.1047 8.77 29.0957 8.767 29.0837 8.767H27.4547C27.4427 8.767 27.4307 8.77 27.4187 8.776C27.4127 8.782 27.4097 8.791 27.4097 8.803L27.1847 9.919C27.1787 9.973 27.1457 10 27.0857 10H26.6267C26.5967 10 26.5727 9.991 26.5547 9.973C26.5427 9.955 26.5397 9.931 26.5457 9.901L27.8957 3.781C27.9077 3.727 27.9407 3.7 27.9947 3.7H28.5347C28.5947 3.7 28.6277 3.727 28.6337 3.781L30.0017 9.901V9.919C30.0017 9.973 29.9747 10 29.9207 10H29.4527ZM27.5267 8.209C27.5267 8.233 27.5357 8.245 27.5537 8.245H28.9757C28.9937 8.245 29.0027 8.233 29.0027 8.209L28.2827 4.672C28.2767 4.654 28.2707 4.645 28.2647 4.645C28.2587 4.645 28.2527 4.654 28.2467 4.672L27.5267 8.209Z" fill="#141349"/>
<rect x="23.5537" y="21.2559" width="1.72346" height="5.74486" fill="black"/>
<rect x="6.89355" y="39.6396" width="1.72346" height="5.74486" transform="rotate(-90 6.89355 39.6396)" fill="black"/>
<rect x="41.9375" y="37.916" width="1.72346" height="5.74486" transform="rotate(90 41.9375 37.916)" fill="black"/>
<rect x="23.5537" y="50.5547" width="1.72346" height="5.74486" fill="black"/>
<circle cx="24.4157" cy="38.7775" r="1.43621" fill="black"/>
<path d="M18.1407 26.7363C17.9576 26.297 18.1652 25.7924 18.6044 25.6093V25.6093C19.0437 25.4261 19.5483 25.6337 19.7314 26.073L24.9274 38.5334L23.3367 39.1967L18.1407 26.7363Z" fill="black"/>
<path d="M32.0678 39.8813C32.5281 40.0019 32.8036 40.4728 32.683 40.9332V40.9332C32.5624 41.3936 32.0915 41.6691 31.6311 41.5485L24.1286 39.5834L24.5653 37.9162L32.0678 39.8813Z" fill="black"/>
</svg>
